<svg xmlns="http://www.w3.org/2000/svg" width="12" height="4" viewBox="0 0 12 4">
  <path fill="#B9BEC3" fill-rule="evenodd" d="M86.55,14.518 C85.486,14.518 84.506,15.162 83.596,16.464 L84.352,17.066 C85.094,16.03 85.822,15.512 86.55,15.512 C86.984,15.512 87.488,15.652 88.048,15.946 C88.468,16.184 88.916,16.45 89.378,16.73 C90.19,17.178 90.918,17.402 91.562,17.402 C92.556,17.402 93.508,16.73 94.404,15.414 L93.662,14.798 C92.906,15.876 92.206,16.422 91.562,16.422 C91.03,16.422 90.372,16.184 89.588,15.736 C89.126,15.456 88.678,15.204 88.258,14.966 C87.642,14.658 87.068,14.518 86.55,14.518 Z" transform="translate(-83 -14)"/>
</svg>
