<?xml version="1.0" encoding="UTF-8"?>
<svg width="13px" height="12px" viewBox="0 0 13 12" version="1.1" xmlns="http://www.w3.org/2000/svg" xmlns:xlink="http://www.w3.org/1999/xlink">
    <!-- Generator: Sketch 47.1 (45422) - http://www.bohemiancoding.com/sketch -->
    <title>tf_navigation_group_icon</title>
    <desc>Created with Sketch.</desc>
    <defs></defs>
    <g id="风豹控件梳理20171218" stroke="none" stroke-width="1" fill="none" fill-rule="evenodd">
        <g id="01车队开票管理展开" transform="translate(-955.000000, -72.000000)" fill="#9BA0AA">
            <g id="Group-21" transform="translate(802.000000, 52.000000)">
                <g id="tf_navigation_group_icon" transform="translate(153.000000, 20.000000)">
                    <path d="M5.22856369,6.91428571 C3.87368278,6.91428571 2.77142857,5.8120315 2.77142857,4.4571506 C2.77142857,3.10225421 3.87368278,2 5.22856369,2 C6.58346007,2 7.68571429,3.10225421 7.68571429,4.4571506 C7.68571429,5.8120315 6.58346007,6.91428571 5.22856369,6.91428571 Z M5.22856369,2.74856911 C4.28644642,2.74856911 3.5199822,3.51507566 3.5199822,4.4571506 C3.5199822,5.39926787 4.28644642,6.16573209 5.22856369,6.16573209 C6.17063863,6.16573209 6.93714518,5.39926787 6.93714518,4.4571506 C6.93714518,3.51501922 6.17063863,2.74856911 5.22856369,2.74856911 Z" id="Fill-1"></path>
                    <path d="M8.20592749,11.1271362 L7.57415771,11.2705078 C7.57415771,11.2504874 7.71801758,11.4665527 7.90496826,10.9709473 C8.09191895,10.4753418 8.09270463,9.69082277 8.09191895,9.67131696 C8.02950852,8.12188875 6.8049655,6.9262085 5.24075878,6.9262085 C3.63685861,6.9262085 2.36279297,8.27850288 2.36279297,9.88269043 L1.95349121,9.65284692 C1.95349121,9.53318495 1.7488367,9.53302358 1.76065455,9.41554088 C1.84091556,8.61765675 2.19046539,7.87790406 2.76505586,7.30321617 C3.4241889,6.64397138 4.30059955,6.28092133 5.23277267,6.28092133 C6.16496122,6.28092133 7.04137187,6.64397138 7.70056665,7.30321617 C8.3360555,7.93887231 8.69627947,8.77647427 8.7213054,9.67131696 C8.72177233,9.68801289 8.70873215,10.3508606 8.59759521,10.7861938 C8.48645828,11.2215271 8.20592749,11.1104631 8.20592749,11.1271362 Z M8.22875898,6.74310431 C8.14742264,6.74310431 8.06554611,6.7381029 7.98542905,6.72820813 L8.05656362,6.15133227 C8.11317495,6.15832498 8.17111359,6.1618908 8.22875898,6.1618908 C8.99526525,6.1618908 9.61882329,5.53814986 9.61882329,4.77157537 C9.61882329,4.00493914 8.99526525,3.38121363 8.22875898,3.38121363 C8.1076342,3.38115189 7.9870033,3.39683533 7.86992218,3.42793979 L7.72039913,2.86626884 C7.88625119,2.82218232 8.05711924,2.79993838 8.22875898,2.80000013 C9.31568722,2.80000013 10.2,3.6844011 10.2,4.77157537 C10.1999383,5.85864159 9.31568722,6.74310431 8.22875898,6.74310431 Z" id="Fill-2"></path>
                    <path d="M11.0280999,8.90265692 L10.3704224,9.73492432 C10.3704224,9.71938869 10.4283177,9.35700038 10.4453255,9.15490723 C10.4658983,8.91045351 10.4462031,8.81882365 10.4453255,8.80024226 C10.3910298,7.650676 9.42757686,6.73193359 8.25109863,6.73193359 C8.15373219,6.73193359 8.05584169,6.73823945 7.96010907,6.75072932 L7.88412101,6.18216629 C8.0058098,6.16634071 8.12839256,6.15842031 8.25109863,6.15842031 C9.7823736,6.15842031 11.0280999,7.38950976 11.0280999,8.90265692 Z" id="Fill-3"></path>
                    <path d="M6.49995871,0 C3.19142073,0 0.5,2.67809686 0.5,5.97025594 C0.5,9.2624972 3.19142073,11.9405941 6.49995871,11.9405941 C9.80857927,11.9405941 12.5,9.2624972 12.5,5.97025594 C12.5,2.67809686 9.80857927,0 6.49995871,0 Z M6.4999639,0.75 C3.60705071,0.75 1.25373134,3.09166927 1.25373134,5.9702611 C1.25373134,8.84892479 3.60705071,11.1905941 6.4999639,11.1905941 C9.39294929,11.1905941 11.7462687,8.84892479 11.7462687,5.9702611 C11.7462687,3.09166927 9.39294929,0.75 6.4999639,0.75 Z" id="帮助中心-(1)"></path>
                </g>
            </g>
        </g>
    </g>
</svg>