<?xml version="1.0" encoding="UTF-8"?>
<svg width="12px" height="12px" viewBox="0 0 12 12" version="1.1" xmlns="http://www.w3.org/2000/svg" xmlns:xlink="http://www.w3.org/1999/xlink">
    <!-- Generator: Sketch 47.1 (45422) - http://www.bohemiancoding.com/sketch -->
    <title>tf_navigation_help_icon</title>
    <desc>Created with Sketch.</desc>
    <defs></defs>
    <g id="风豹控件梳理20171218" stroke="none" stroke-width="1" fill="none" fill-rule="evenodd">
        <g id="01车队开票管理展开" transform="translate(-1106.000000, -72.000000)" fill="#9BA0AA">
            <g id="Group-21" transform="translate(802.000000, 52.000000)">
                <g id="tf_navigation_help_icon" transform="translate(304.000000, 20.000000)">
                    <path d="M5.99995871,0 C2.69142073,0 0,2.67809686 0,5.97025594 C0,9.2624972 2.69142073,11.9405941 5.99995871,11.9405941 C9.30857927,11.9405941 12,9.2624972 12,5.97025594 C12,2.67809686 9.30857927,0 5.99995871,0 Z M5.9999639,0.75 C3.10705071,0.75 0.753731343,3.09166927 0.753731343,5.9702611 C0.753731343,8.84892479 3.10705071,11.1905941 5.9999639,11.1905941 C8.89294929,11.1905941 11.2462687,8.84892479 11.2462687,5.9702611 C11.2462687,3.09166927 8.89294929,0.75 5.9999639,0.75 Z M5.99995803,10.2772277 C5.63911354,10.2772277 5.34653465,9.98464884 5.34653465,9.62372041 C5.34653465,9.26287591 5.63911354,8.97029703 5.99995803,8.97029703 C6.36088646,8.97029703 6.65346535,9.26287591 6.65346535,9.62372041 C6.65346535,9.98464884 6.36088646,10.2772277 5.99995803,10.2772277 Z M7.18404368,5.88470344 C6.81188329,6.25628922 6.42779283,6.64070183 6.42779283,6.98620093 L6.42779283,7.71013229 C6.42779283,7.94639725 6.23614939,8.13861386 6.00008242,8.13861386 C5.76393303,8.13861386 5.57228959,7.94689217 5.57228959,7.71054472 L5.57228959,6.98667523 C5.57228959,6.28633531 6.10697911,5.75121796 6.57919547,5.27901798 C6.92520862,4.9322197 7.28321365,4.57440933 7.28321365,4.28891992 C7.28321365,3.57529951 6.70747975,2.994814 6,2.994814 C5.28061079,2.994814 4.71688938,3.55049138 4.71688938,4.25984306 C4.71688938,4.49610803 4.52524594,4.68782971 4.28909655,4.68782971 C4.05302958,4.68782971 3.86138614,4.49610803 3.86138614,4.25984306 C3.86138614,3.09027272 4.8207984,2.13861386 6,2.13861386 C7.1792222,2.13861386 8.13861386,3.10307891 8.13861386,4.28891992 C8.13869628,4.92972445 7.65312814,5.41522555 7.18404368,5.88470344 Z" id="帮助中心-(1)"></path>
                </g>
            </g>
        </g>
    </g>
</svg>