<svg xmlns="http://www.w3.org/2000/svg" width="122" height="37" viewBox="0 0 122 37" xmlns:xlink="http://www.w3.org/1999/xlink">
  <defs>
    <polygon id="a" points=".03 .091 36.753 .091 36.753 36.442 .03 36.442 .03 .091"/>
  </defs>
  <g fill="none" fill-rule="evenodd" transform="translate(-11 -12)">
    <path fill="#FFFFFF" d="M56.528,40.292 L57.608,40.292 L57.608,37.256 L58.448,37.256 L58.448,40.292 L59.516,40.292 L59.516,41.108 L58.448,41.108 L58.448,44.756 C58.784,44.588 59.108,44.408 59.432,44.216 L59.432,45.056 C58.568,45.56 57.632,45.992 56.624,46.328 L56.408,45.512 C56.816,45.404 57.224,45.272 57.608,45.128 L57.608,41.108 L56.528,41.108 L56.528,40.292 Z M61.004,42.272 L61.004,42.296 C60.956,44.696 60.404,46.628 59.348,48.068 L58.712,47.504 C59.636,46.256 60.116,44.528 60.164,42.296 L60.164,39.032 L63.644,39.032 C63.62,38.456 63.62,37.844 63.62,37.208 L64.412,37.208 C64.412,37.856 64.424,38.468 64.448,39.032 L67.148,39.032 L67.148,39.812 L64.472,39.812 C64.544,41.3 64.652,42.488 64.82,43.352 C64.856,43.592 64.904,43.808 64.952,44.024 C65.396,43.124 65.744,42.092 66.008,40.928 L66.716,41.228 C66.356,42.74 65.864,44.036 65.24,45.092 C65.36,45.5 65.504,45.836 65.648,46.112 C65.936,46.676 66.176,46.964 66.344,46.964 C66.512,46.952 66.656,46.364 66.788,45.212 L67.508,45.608 C67.268,47.216 66.932,48.02 66.5,48.02 C66.092,48.02 65.672,47.66 65.228,46.94 C65.036,46.64 64.868,46.292 64.712,45.884 C64.028,46.82 63.224,47.528 62.312,48.02 L61.796,47.36 C62.84,46.82 63.716,46.028 64.412,44.972 C64.28,44.564 64.172,44.12 64.076,43.64 C63.872,42.62 63.74,41.348 63.668,39.812 L61.004,39.812 L61.004,41.54 L63.08,41.54 C63.08,43.7 62.984,45.02 62.816,45.5 C62.648,45.956 62.336,46.196 61.892,46.22 L61.076,46.22 L60.86,45.512 L61.688,45.512 C61.952,45.488 62.108,45.284 62.18,44.912 C62.252,44.528 62.288,43.652 62.3,42.272 L61.004,42.272 Z M65.852,37.112 C66.176,37.58 66.452,38.072 66.692,38.6 L66.056,38.876 C65.792,38.3 65.516,37.796 65.216,37.364 L65.852,37.112 Z M80.448,44.984 L79.596,44.708 C79.56,45.668 79.5,46.316 79.404,46.64 C79.308,46.976 79.092,47.144 78.756,47.144 L76.872,47.144 C76.62,47.132 76.5,46.916 76.5,46.508 L76.5,42.572 L79.776,42.572 L79.776,37.712 L75.456,37.712 L75.456,38.528 L78.936,38.528 L78.936,41.732 L75.66,41.732 L75.66,46.82 C75.66,47.576 75.948,47.96 76.524,47.96 L78.9,47.96 C79.476,47.96 79.848,47.768 80.04,47.408 C80.232,47.036 80.364,46.232 80.448,44.984 Z M69.6,37.7 L75.06,37.7 L75.06,38.516 L73.5,38.516 L73.5,39.908 L74.868,39.908 L74.868,48.152 L74.1,48.152 L74.1,47.504 L70.68,47.504 L70.68,48.152 L69.912,48.152 L69.912,39.908 L71.22,39.908 L71.22,38.516 L69.6,38.516 L69.6,37.7 Z M70.68,46.688 L74.1,46.688 L74.1,45.524 L70.68,45.524 L70.68,46.688 Z M71.388,40.7 L70.68,40.7 L70.68,44.732 L74.1,44.732 L74.1,43.688 L73.488,43.688 C72.984,43.688 72.732,43.412 72.732,42.86 L72.732,40.7 L71.976,40.7 L71.976,41.48 C71.952,42.764 71.688,43.7 71.184,44.3 L70.728,43.88 C71.16,43.376 71.376,42.584 71.388,41.48 L71.388,40.7 Z M71.964,39.908 L72.756,39.908 L72.756,38.516 L71.964,38.516 L71.964,39.908 Z M74.1,43.016 L74.1,40.7 L73.332,40.7 L73.332,42.704 C73.332,42.908 73.428,43.016 73.632,43.016 L74.1,43.016 Z M84.22,38.84 C83.932,39.284 83.608,39.668 83.248,39.992 L82.732,39.344 C83.308,38.816 83.788,38.072 84.184,37.112 L84.964,37.28 C84.856,37.568 84.748,37.832 84.64,38.072 L88.072,38.072 L88.072,38.84 L86.26,38.84 C86.236,39.248 86.2,39.644 86.152,40.004 L88.408,40.004 L88.408,40.796 L85.972,40.796 C85.936,40.916 85.9,41.024 85.876,41.132 C86.788,41.588 87.556,42.056 88.18,42.536 L87.568,43.148 C87.064,42.692 86.416,42.236 85.6,41.756 C85.12,42.596 84.28,43.292 83.092,43.844 L82.516,43.136 C83.764,42.584 84.58,41.9 84.976,41.084 L85.096,40.796 L82.684,40.796 L82.684,40.004 L85.312,40.004 C85.384,39.632 85.42,39.248 85.444,38.84 L84.22,38.84 Z M88.912,38.012 L92.86,38.012 L92.86,42.404 L88.912,42.404 L88.912,38.012 Z M92.02,41.636 L92.02,38.78 L89.752,38.78 L89.752,41.636 L92.02,41.636 Z M92.008,43.268 L92.008,48.224 L91.132,48.224 L91.132,47.684 L85.192,47.684 L85.192,48.224 L84.328,48.224 L84.328,43.268 L92.008,43.268 Z M85.192,46.916 L91.132,46.916 L91.132,45.884 L85.192,45.884 L85.192,46.916 Z M85.192,45.128 L91.132,45.128 L91.132,44.036 L85.192,44.036 L85.192,45.128 Z M105.008,45.14 L100.952,45.14 C101.504,45.596 101.912,45.992 102.2,46.328 L101.6,46.76 C101.288,46.376 100.88,45.956 100.352,45.5 L100.916,45.14 L96.596,45.14 L96.596,44.492 L104.168,44.492 L104.168,43.748 L97.1,43.748 L97.1,43.148 L104.168,43.148 L104.168,42.416 L96.74,42.416 L96.74,41.78 L98.144,41.78 L98.144,41.108 L95.984,41.108 L95.984,40.484 L98.144,40.484 L98.144,39.8 L96.44,39.8 L96.44,39.176 L98.144,39.176 L98.144,38.504 L96.188,38.504 L96.188,37.88 L98.144,37.88 L98.144,37.232 L98.984,37.232 L98.984,37.88 L100.736,37.88 L100.736,38.504 L98.984,38.504 L98.984,39.176 L100.58,39.176 L100.58,39.8 L98.984,39.8 L98.984,40.484 L100.736,40.484 L100.736,41.108 L98.984,41.108 L98.984,41.78 L103.064,41.78 L103.064,41.108 L101.168,41.108 L101.168,40.484 L103.064,40.484 L103.064,39.8 L101.42,39.8 L101.42,39.176 L103.064,39.176 L103.064,38.504 L101.228,38.504 L101.228,37.88 L103.064,37.88 L103.064,37.232 L103.904,37.232 L103.904,37.88 L105.836,37.88 L105.836,38.504 L103.904,38.504 L103.904,39.176 L105.584,39.176 L105.584,39.8 L103.904,39.8 L103.904,40.484 L106.004,40.484 L106.004,41.108 L103.904,41.108 L103.904,41.78 L105.008,41.78 L105.008,45.14 Z M96.788,45.632 L97.544,45.788 C97.268,46.628 96.896,47.36 96.416,47.984 L95.72,47.552 C96.2,46.976 96.56,46.328 96.788,45.632 Z M102.68,47.996 L99.44,47.996 C98.732,47.996 98.384,47.684 98.384,47.072 L98.384,45.584 L99.212,45.584 L99.212,46.892 C99.212,47.132 99.356,47.252 99.668,47.252 L102.524,47.252 C102.764,47.252 102.932,47.204 103.028,47.108 C103.16,46.976 103.256,46.604 103.304,45.992 L104.084,46.244 C104.012,47.084 103.856,47.588 103.628,47.78 C103.412,47.924 103.1,47.996 102.68,47.996 Z M104.972,45.452 C105.644,46.172 106.16,46.808 106.52,47.348 L105.884,47.792 C105.5,47.204 104.996,46.556 104.348,45.836 L104.972,45.452 Z M108.732,40.352 L108.732,41.192 L113.256,41.192 C112.632,44.144 111.048,46.256 108.492,47.516 L109.032,48.236 C111.588,46.904 113.244,44.78 113.988,41.864 C114.888,44.576 116.544,46.664 118.956,48.152 L119.496,47.456 C117.036,45.992 115.38,43.904 114.54,41.192 L119.268,41.192 L119.268,40.352 L114.288,40.352 C114.384,39.608 114.444,38.828 114.444,37.988 L114.444,37.208 L113.556,37.208 L113.556,38.18 C113.544,38.936 113.496,39.656 113.4,40.352 L108.732,40.352 Z M123.088,41.372 L123.088,43.388 L124.624,43.388 L124.624,41.372 L123.088,41.372 Z M124.624,40.568 L124.624,38.516 L123.088,38.516 L123.088,40.568 L124.624,40.568 Z M123.064,44.204 C122.968,45.836 122.668,47.192 122.14,48.26 L121.456,47.636 C121.972,46.544 122.236,45.152 122.248,43.472 L122.248,37.664 L125.476,37.664 L125.476,47.132 C125.476,47.816 125.128,48.164 124.432,48.164 L123.592,48.164 L123.352,47.336 C123.652,47.36 123.928,47.384 124.168,47.384 C124.468,47.384 124.624,47.192 124.624,46.832 L124.624,44.204 L123.064,44.204 Z M128.236,40.088 C128.656,40.856 129.04,41.588 129.388,42.284 C129.652,41.552 129.856,40.76 130.012,39.92 L130.768,40.052 C130.54,41.252 130.24,42.32 129.856,43.256 C130.252,44.072 130.588,44.84 130.864,45.548 L130.216,45.992 C129.976,45.392 129.724,44.78 129.448,44.156 C129.04,44.936 128.584,45.62 128.056,46.208 L127.516,45.548 C128.104,44.876 128.608,44.108 129.016,43.22 C128.584,42.344 128.116,41.432 127.6,40.496 L128.236,40.088 Z M129.256,37.196 L128.392,37.34 C128.536,37.724 128.668,38.144 128.788,38.612 L126.076,38.612 L126.076,39.44 L132.46,39.44 L132.46,38.612 L129.676,38.612 C129.532,38.084 129.4,37.604 129.256,37.196 Z M127.252,47.564 L127.252,48.116 L126.436,48.116 L126.436,40.856 L127.252,40.856 L127.252,46.772 L131.236,46.772 L131.236,40.82 L132.052,40.82 L132.052,48.092 L131.236,48.092 L131.236,47.564 L127.252,47.564 Z"/>
    <g transform="rotate(15 2.6 48.34)">
      <g transform="translate(6.277 5.687)">
        <mask id="b" fill="white">
          <use xlink:href="#a"/>
        </mask>
        <path fill="#FFFFFF" d="M18.391857,0.0911093802 C8.25099523,0.0911093802 0.0302345512,8.22850124 0.0302345512,18.266522 C0.0302345512,28.3045427 8.25099523,36.4419345 18.391857,36.4419345 C28.5327188,36.4419345 36.7534794,28.3045427 36.7534794,18.266522 C36.7534794,8.22850124 28.5327188,0.0911093802 18.391857,0.0911093802 M18.391857,1.20894063 C22.9948143,1.20894063 27.3224683,2.98324557 30.5772105,6.20511929 C33.8320928,9.42685433 35.6245758,13.7106206 35.6245758,18.2668981 C35.6245758,22.8231756 33.8320928,27.1069418 30.5772105,30.3286769 C27.3224683,33.5505506 22.9948143,35.3248555 18.391857,35.3248555 C13.7888997,35.3248555 9.46124565,33.5505506 6.20650345,30.3286769 C2.95162114,27.1069418 1.15913818,22.8231756 1.15913818,18.2668981 C1.15913818,13.7106206 2.95162114,9.42685433 6.20650345,6.20511929 C9.46124565,2.98324557 13.983163,1.15743191 18.5861203,1.15743191" mask="url(#b)"/>
      </g>
      <g fill="#FFFFFF" transform="rotate(24 7.433 35.92)">
        <path d="M35.8245078 22.5180194C35.1808846 23.4528916 34.4497331 24.2963401 33.6478962 25.0433085 33.6658506 24.9638433 33.6836181 24.8848497 33.7011992 24.8063236 34.909139 19.4110395 34.9357711 18.6510291 35.359487 18.4867684 35.7832029 18.3225078 36.7750573 18.728243 34.3045709 12.6171316 29.0374367-.411899929 15.4497907.487391853 8.16109382 6.72916233 8.54734516 5.65252301 9.0933848 4.63981224 9.83397053 3.67508723 11.444913 1.57659079 11.8214207 1.87452981 14.2163009.66811972 15.5382312.0744845257 17.3485739.188636805 18.0090401.190959978 28.1499019.226354202 35.8602647 7.99394389 35.8245078 18.031828 35.8195378 19.4378943 36.1345845 21.2046067 35.8245078 22.5180194zM.893898738 13.0328243C1.53752192 12.0979521 2.3529084 10.2879716 3.15474527 9.54100312-.411759835 16.8819741 2.46438661 25.0421237 8.24438462 29.9394239 14.0243826 34.8367241 22.6298356 33.1131574 27.6971618 29.5276991 27.3070118 30.7320593 27.1251301 31.1093901 26.4115118 32.2286129 24.8731392 34.6412964 22.3875935 35.5753966 20.7749808 35.8097264 20.1323241 35.8747752 19.0751463 35.432757 18.4146801 35.4304338 8.27381833 35.3950396.082049687 27.2289497.117806531 17.1910657.122776594 15.7849993.583822016 14.346237.893898738 13.0328243z"/>
      </g>
    </g>
    <g fill="#FFFFFF" transform="rotate(5 -216.894 226.31)">
      <path d="M2.1425267,9.5979606 C2.08536474,9.65723675 2.26421737,10.0660367 2.48977205,10.5402352 C2.71532674,11.0144337 3.24493004,11.0874152 3.24493004,11.0874152 C3.24493004,11.0874152 2.35204016,11.3580035 2.05080462,10.9832644 C1.74956908,10.6085253 1.38601706,10.0875876 1.17704862,10.0882625 C0.968080172,10.0889374 0.901538845,10.143873 0.626914985,9.98085856 C0.352291124,9.81784409 -0.186810105,8.16402019 0.316270015,7.14218593 C0.819350134,6.12035167 4.23687833,4.17352657 4.23687833,4.17352657 C4.23687833,4.17352657 4.19633957,2.52076611 4.51146407,2.15181115 C5.28283711,1.24866997 7.35273256,0.497322582 9.34685345,0.215741794 C11.3409744,-0.0658389942 17.6441054,0.412453002 17.6441054,0.412453002 C17.6441054,0.412453002 16.8797945,2.01669824 16.5314992,2.17329934 C16.1832039,2.32990043 15.0882273,2.53703074 15.0882273,2.53703074 C15.0882273,2.53703074 18.220144,4.83467605 18.1063071,7.4935794 C17.9924702,10.1524827 16.3933286,13.5949006 13.7986794,15.4266259 C13.7986794,15.4266259 12.9431061,15.3630125 10.6389215,15.2506934 C8.33473685,15.1383743 6.09303919,15.6364334 5.70096979,15.3468705 C5.3089004,15.0573076 4.12810362,12.6148693 4.21004519,12.6293178 C4.26889086,12.6396939 5.43796087,14.3010619 6.45172691,14.215039 C7.46549295,14.1290161 8.54728673,13.862396 8.83694272,13.581392 C9.23440717,13.1957998 9.72423256,12.137461 9.81933521,11.7623055 C10.1919466,10.2924494 7.99819074,8.2915421 7.99819074,8.2915421 C7.99819074,8.2915421 8.04934791,8.85902309 8.0933645,9.34729441 C8.1373811,9.83556574 7.72561639,10.5017294 7.72561639,10.5017294 C7.72561639,10.5017294 7.38048127,9.2804838 6.66627047,8.97638386 C5.95205967,8.67228393 2.83470938,8.88017678 2.1425267,9.5979606 Z M6.99140892,4.09815886 L8.31209603,4.09815886 C8.82789247,4.09815886 9.90684672,3.68645819 9.94329765,3.55318348 C9.97974859,3.41990876 9.29412381,3.37878614 8.82171307,3.37878614 C7.60897814,3.37878614 6.99140892,4.09815886 6.99140892,4.09815886 Z"/>
      <path d="M15.4268226,2.60728554 C15.4268226,2.60728554 17.8250755,4.29483606 18.2307011,6.67926775 C18.6236108,8.98894978 16.9459155,12.5175421 15.7537372,13.8245331 C14.5615588,15.131524 14.0265062,15.4852592 14.0265062,15.4852592 C14.0265062,15.4852592 15.599611,15.8387479 17.2063409,17.524716 C18.8130709,19.2106841 21.0984389,26.1960806 9.21401569,26.5415423 C9.01074207,26.5474512 20.7070435,28.9298064 25.3512747,21.4060729 C29.9955058,13.8823393 28.8465731,18.0257355 29.4184313,13.7209511 C29.9902895,9.41616669 29.5437583,6.40276082 28.7228931,5.77091288 C28.5433237,5.63269219 26.2721832,2.85402926 22.0409804,2.38619952 C17.8097777,1.91836978 15.4268226,2.60728554 15.4268226,2.60728554 Z"/>
    </g>
    <path fill="#FFFFFF" d="M63.6355553,18.06 C64.6355553,19.32 65.5755553,20.52 66.4355553,21.68 C67.1155553,20.36 67.6755553,18.96 68.0955553,17.48 L70.1555553,17.84 C69.5755553,19.96 68.7955553,21.88 67.8355553,23.6 C68.9955553,25.24 69.9755553,26.74 70.7755553,28.12 L68.8755553,29.44 C68.1955553,28.2 67.4155553,26.94 66.5555553,25.62 C65.3755553,27.22 63.9955553,28.6 62.4355553,29.78 L61.0355553,27.98 C62.6955553,26.74 64.0955553,25.3 65.2355553,23.66 C64.2355553,22.18 63.1355553,20.68 61.9355553,19.12 L63.6355553,18.06 Z M59.4555553,14.2 L72.8955553,14.2 L72.8955553,22.46 C72.8955553,25.42 72.9755553,27.34 73.1555553,28.18 C73.2955553,29 73.4755553,29.42 73.6755553,29.42 C73.8155553,29.42 73.9355553,28.66 74.0555553,27.18 L75.9155553,28.08 C75.6555553,29.64 75.3755553,30.66 75.0555553,31.16 C74.6955553,31.66 74.3155553,31.92 73.8955553,31.92 C72.8155553,31.92 72.0355553,31.28 71.5355553,30 C71.0155553,28.76 70.7555553,26.26 70.7555553,22.46 L70.7555553,16.24 L61.5555553,16.24 L61.5555553,22.2 C61.5155553,26.14 60.6955553,29.44 59.1155553,32.12 L57.3555553,30.68 C58.6955553,28.44 59.3955553,25.6 59.4555553,22.2 L59.4555553,14.2 Z M93.12,21.24 C94.32,22.92 95.24,24.4 95.88,25.66 L94.08,26.9 C93.44,25.52 92.58,23.98 91.5,22.26 L93.12,21.24 Z M92.22,13.5 L94.28,13.76 C94.12,14.62 93.92,15.44 93.68,16.24 L99.64,16.24 C99.64,23.38 99.54,27.78 99.34,29.46 C99.1,31.12 98.08,31.96 96.28,31.96 C95.78,31.96 94.92,31.92 93.72,31.84 L93.18,29.86 C94.22,29.92 95.14,29.96 95.9,29.96 C96.7,29.96 97.18,29.46 97.3,28.5 C97.42,27.52 97.48,24.1 97.52,18.26 L92.96,18.26 C92.3,19.82 91.48,21.2 90.48,22.42 L89.1,20.66 C90.64,18.7 91.68,16.32 92.22,13.5 Z M88.76,16.62 L90.28,17.8 C89.58,18.8 88.74,19.66 87.76,20.42 C89.36,22.44 90.2,24.9 90.24,27.78 C90.24,29.32 90,30.38 89.52,30.94 C88.94,31.62 87.64,31.98 85.6,31.98 L85.24,31.98 L84.54,30.08 L85.36,30.08 C86.6,30.08 87.36,29.94 87.66,29.7 C88.04,29.36 88.24,28.72 88.24,27.78 C88.22,27.38 88.2,27 88.16,26.64 C86.78,28 85.04,29.12 82.92,30.02 L81.88,28.24 C84.38,27.28 86.34,26.06 87.78,24.58 C87.68,24.22 87.56,23.88 87.44,23.56 C86.24,24.74 84.7,25.72 82.86,26.48 L81.84,24.72 C83.88,24 85.48,23.08 86.68,22 L86.28,21.4 C85.28,21.98 84.16,22.48 82.92,22.88 L82.1,21.1 C82.66,20.92 83.18,20.74 83.66,20.54 C83.3,20.02 82.9,19.5 82.46,18.96 L83.98,18 C84.5,18.64 84.94,19.2 85.3,19.72 C85.64,19.52 85.96,19.32 86.26,19.12 C85.98,18.68 85.64,18.24 85.28,17.78 L86.78,16.84 C87.1,17.24 87.38,17.62 87.62,17.98 C88.04,17.54 88.42,17.1 88.76,16.62 Z M88.22,13.52 L89.4,15.06 C87.86,16.12 85.66,16.98 82.78,17.64 L81.72,15.84 C84.58,15.24 86.74,14.48 88.22,13.52 Z"/>
  </g>
</svg>
