<?xml version="1.0" encoding="UTF-8"?>
<svg width="25px" height="24px" viewBox="0 0 25 24" version="1.1" xmlns="http://www.w3.org/2000/svg" xmlns:xlink="http://www.w3.org/1999/xlink">
    <!-- Generator: Sketch 47.1 (45422) - http://www.bohemiancoding.com/sketch -->
    <title>tf_dengbao_logo</title>
    <desc>Created with Sketch.</desc>
    <defs>
        <polygon id="path-1" points="0.0197611446 0.0595754101 24.021882 0.0595754101 24.021882 23.8182579 0.0197611446 23.8182579 0.0197611446 0.0595754101"></polygon>
    </defs>
    <g id="风豹控件梳理20171218" stroke="none" stroke-width="1" fill="none" fill-rule="evenodd">
        <g id="01车队开票管理展开" transform="translate(-9.000000, -13.000000)">
            <g id="navigation">
                <g id="tf_dengbao_logo" transform="translate(2.000000, 5.000000)">
                    <g id="Group-8" transform="translate(19.705990, 19.950055) rotate(15.000000) translate(-19.705990, -19.950055) translate(3.627558, 4.263781)">
                        <g id="Group-3" transform="translate(4.102912, 3.717079)">
                            <mask id="mask-2" fill="white">
                                <use xlink:href="#path-1"></use>
                            </mask>
                            <g id="Clip-2"></g>
                            <path d="M12.0208216,0.0595486145 C5.39280734,0.0595486145 0.0197611446,5.37810539 0.0197611446,11.9389032 C0.0197611446,18.4997011 5.39280734,23.8182579 12.0208216,23.8182579 C18.6488358,23.8182579 24.021882,18.4997011 24.021882,11.9389032 C24.021882,5.37810539 18.6488358,0.0595486145 12.0208216,0.0595486145 M12.0208216,0.790157276 C15.0292904,0.790157276 17.8578224,1.94983371 19.9851049,4.05563352 C22.112479,6.1613427 23.2840365,8.96118992 23.2840365,11.9391491 C23.2840365,14.9171082 22.112479,17.7169555 19.9851049,19.8226646 C17.8578224,21.9284644 15.0292904,23.0881409 12.0208216,23.0881409 C9.01235276,23.0881409 6.18382069,21.9284644 4.0565382,19.8226646 C1.92916415,17.7169555 0.757606653,14.9171082 0.757606653,11.9391491 C0.757606653,8.96118992 1.92916415,6.1613427 4.0565382,4.05563352 C6.18382069,1.94983371 9.13932225,0.756491444 12.1477911,0.756491444" id="Fill-1" fill="#FFFFFF" mask="url(#mask-2)"></path>
                        </g>
                        <g id="Group-5" transform="translate(15.931403, 15.586441) rotate(24.000000) translate(-15.931403, -15.586441) translate(4.166697, 3.821735)" fill="#FFFFFF">
                            <path d="M23.414711,14.7176598 C22.9940422,15.3286873 22.5161654,15.8799608 21.9920891,16.3681755 C22.0038239,16.3162374 22.0154367,16.2646076 22.0269276,16.2132834 C22.8164307,12.6869539 22.8338373,12.1902151 23.1107758,12.0828552 C23.3877143,11.9754953 24.0359851,12.2406817 22.4212882,8.24649122 C18.9787168,-0.26921564 10.0979024,0.318556767 5.33404825,4.39814532 C5.5865001,3.69445948 5.94338876,3.03255702 6.42743172,2.4020178 C7.48033531,1.0304515 7.72641875,1.22518288 9.29169991,0.436679555 C10.1557067,0.0486826965 11.3389372,0.123292029 11.7706144,0.124810443 C18.3986287,0.147943923 23.4380815,5.22479993 23.414711,11.7855085 C23.4114626,12.7045061 23.6173755,13.8592201 23.414711,14.7176598 Z" id="Fill-4"></path>
                            <path d="M0.584247541,8.51818581 C1.00491629,7.90715825 1.53784863,6.72416443 2.06192501,6.23594975 C-0.269124075,11.03397 1.6107102,16.3674011 5.38848668,19.5682509 C9.16626316,22.7691007 14.7907423,21.6425865 18.1027201,19.2991497 C17.8477201,20.0863133 17.7288432,20.3329347 17.262426,21.0644529 C16.2569537,22.6413702 14.632414,23.2518932 13.5784189,23.4050499 C13.1583817,23.4475655 12.4674159,23.1586647 12.0357386,23.1571463 C5.4077244,23.1340128 0.0536272464,17.7966992 0.0769977325,11.2359906 C0.0802461398,10.316993 0.381583017,9.37662548 0.584247541,8.51818581 Z" id="Fill-6"></path>
                        </g>
                    </g>
                    <g id="Group-2" transform="translate(21.332754, 22.757860) rotate(5.000000) translate(-21.332754, -22.757860) translate(11.528833, 13.738252)" fill="#FFFFFF">
                        <path d="M1.40034425,6.27317686 C1.36298349,6.31191944 1.47988063,6.57910896 1.627302,6.88904263 C1.77472336,7.1989763 2.12086931,7.24667661 2.12086931,7.24667661 C2.12086931,7.24667661 1.53728115,7.4235317 1.34039518,7.1786042 C1.1435092,6.9336767 0.905893503,6.59319452 0.769312821,6.59363563 C0.632732138,6.59407674 0.589241075,6.62998237 0.409748356,6.52343697 C0.230255637,6.41689156 -0.122098108,5.33596091 0.206712428,4.66809538 C0.535522964,4.00022985 2.76920152,2.72779515 2.76920152,2.72779515 C2.76920152,2.72779515 2.7427056,1.64755955 2.94866932,1.40641252 C3.45283472,0.816124163 4.80570755,0.325047439 6.10905455,0.141007708 C7.41240154,-0.0430320224 11.532095,0.269577125 11.532095,0.269577125 C11.532095,0.269577125 11.0325454,1.31810342 10.8049015,1.42045708 C10.5772575,1.52281074 9.86158644,1.65819003 9.86158644,1.65819003 C9.86158644,1.65819003 11.9085909,3.15991899 11.8341876,4.89776431 C11.7597844,6.63560963 10.7145938,8.88555592 9.01874472,10.082762 C9.01874472,10.082762 8.45954648,10.0411846 6.95354345,9.96777346 C5.44754043,9.8943623 3.98237856,10.2198911 3.72612405,10.0306343 C3.46986954,9.84137752 2.69810694,8.24501262 2.75166352,8.25445609 C2.79012474,8.26123784 3.55422279,9.34709929 4.21681497,9.29087515 C4.87940716,9.23465102 5.58646192,9.06038954 5.77577955,8.87672681 C6.03556024,8.62470576 6.35570756,7.93298102 6.41786615,7.68778137 C6.66140303,6.7270911 5.22757565,5.41930856 5.22757565,5.41930856 C5.22757565,5.41930856 5.26101171,5.79021117 5.28978072,6.10934275 C5.31854974,6.42847434 5.04942247,6.8638754 5.04942247,6.8638754 C5.04942247,6.8638754 4.82384396,6.06567568 4.35703952,5.86691756 C3.89023508,5.66815943 1.85275123,5.80403711 1.40034425,6.27317686 Z M4.56954831,2.6785352 L5.43274251,2.6785352 C5.76986436,2.6785352 6.47506322,2.4094498 6.49888736,2.32234214 C6.52271149,2.23523449 6.07459073,2.20835695 5.76582554,2.20835695 C4.97318833,2.20835695 4.56954831,2.6785352 4.56954831,2.6785352 Z" id="Combined-Shape"></path>
                        <path d="M10.0828906,1.7041082 C10.0828906,1.7041082 11.6503761,2.80708239 11.9154909,4.36553448 C12.1722947,5.87513057 11.0757618,8.18140008 10.2965602,9.03564254 C9.51735869,9.889885 9.16765109,10.1210845 9.16765109,10.1210845 C9.16765109,10.1210845 10.1958242,10.3521228 11.2459745,11.4540628 C12.2961248,12.5560027 13.7898293,17.1216213 6.02223248,17.3474133 C5.8893739,17.3512753 13.5340154,18.9083702 16.5694606,13.9908973 C19.6049058,9.0734244 18.8539694,11.7815264 19.2277329,8.96794188 C19.6014964,6.15435731 19.309646,4.184811 18.7731327,3.77183848 C18.6557671,3.68149816 17.1713616,1.8653786 14.4058696,1.55960753 C11.6403776,1.25383646 10.0828906,1.7041082 10.0828906,1.7041082 Z" id="Path-21"></path>
                    </g>
                </g>
            </g>
        </g>
    </g>
</svg>