<?xml version="1.0" encoding="UTF-8"?>
<svg width="12px" height="12px" viewBox="0 0 12 12" version="1.1" xmlns="http://www.w3.org/2000/svg" xmlns:xlink="http://www.w3.org/1999/xlink">
    <!-- Generator: Sketch 47.1 (45422) - http://www.bohemiancoding.com/sketch -->
    <title>tf_navigation_mine_icon</title>
    <desc>Created with Sketch.</desc>
    <defs></defs>
    <g id="风豹控件梳理20171218" stroke="none" stroke-width="1" fill="none" fill-rule="evenodd">
        <g id="01车队开票管理展开" transform="translate(-833.000000, -72.000000)" fill="#9BA0AA">
            <g id="Group-21" transform="translate(802.000000, 52.000000)">
                <g id="tf_navigation_mine_icon" transform="translate(31.000000, 20.000000)">
                    <path d="M5.99995871,0 C2.69142073,0 0,2.67809686 0,5.97025594 C0,9.2624972 2.69142073,11.9405941 5.99995871,11.9405941 C9.30857927,11.9405941 12,9.2624972 12,5.97025594 C12,2.67809686 9.30857927,0 5.99995871,0 Z M5.9999639,0.75 C3.10705071,0.75 0.753731343,3.09166927 0.753731343,5.9702611 C0.753731343,8.84892479 3.10705071,11.1905941 5.9999639,11.1905941 C8.89294929,11.1905941 11.2462687,8.84892479 11.2462687,5.9702611 C11.2462687,3.09166927 8.89294929,0.75 5.9999639,0.75 Z" id="帮助中心-(1)"></path>
                    <path d="M9.49827902,9.7547308 C9.34890938,8.44818035 8.46239602,7.38313435 7.26892577,6.9344803 C8.11163842,6.50100814 8.6894356,5.62221537 8.6894356,4.6109353 C8.6894356,3.17129662 7.51849566,2 6.07928057,2 C4.64000874,2 3.46906879,3.17129662 3.46906879,4.6109353 C3.46906879,5.59647757 4.01791142,6.45618809 4.82586952,6.90051094 C3.58473946,7.32741825 2.6549475,8.41381415 2.50171876,9.7547308 C2.48531761,9.89796675 2.3933231,10.3034902 2.53652954,10.3198853 C2.54663129,10.3211211 2.72150552,10.3945312 2.73134621,10.3945312 C2.82130678,10.3945312 3.16830444,10.8259277 3.12414551,10.6102295 C3.07998657,10.3945312 3.11940361,10.0853915 3.12414551,10.0437311 C3.29275387,8.56909131 4.4699373,7.39050293 6,7.39050293 C7.49794138,7.39050293 8.67570319,8.52004165 8.88278061,9.9510981 C8.88722895,9.98183938 8.88943717,10.013126 8.89477539,10.0437311 C8.96740723,10.460144 8.76384995,10.8591309 8.89477539,10.8591309 C8.90461608,10.8591309 9.48816592,10.3957218 9.49827902,10.3945312 C9.64153086,10.3781815 9.51469152,9.89796675 9.49827902,9.7547308 Z M4.22727273,4.62274236 C4.22727273,3.60266423 5.05715193,2.77272727 6.07727778,2.77272727 C7.09735335,2.77272727 7.92727277,3.60266423 7.92727277,4.62274236 C7.92727277,5.64282049 7.09735335,6.47272732 6.07727778,6.47272732 C5.05715193,6.47272732 4.22727273,5.64282049 4.22727273,4.62274236 Z" id="mine"></path>
                </g>
            </g>
        </g>
    </g>
</svg>