<?xml version="1.0" encoding="UTF-8"?>
<svg width="16px" height="16px" viewBox="0 0 16 16" version="1.1" xmlns="http://www.w3.org/2000/svg" xmlns:xlink="http://www.w3.org/1999/xlink">
    <!-- Generator: Sketch 47.1 (45422) - http://www.bohemiancoding.com/sketch -->
    <title>tf_navgation_user</title>
    <desc>Created with Sketch.</desc>
    <defs>
        <polygon id="path-1" points="0 4.47917174e-15 0 16 16 16 16 6.71875761e-15 0 0"></polygon>
    </defs>
    <g id="风豹控件梳理20171218" stroke="none" stroke-width="1" fill="none" fill-rule="evenodd">
        <g id="01车队开票管理展开" transform="translate(-1108.000000, -17.000000)">
            <g id="navigation">
                <g id="Group-19" transform="translate(1108.000000, 17.000000)">
                    <g id="tf_navgation_user">
                        <mask id="mask-2" fill="white">
                            <use xlink:href="#path-1"></use>
                        </mask>
                        <g id="Clip-2"></g>
                        <path d="M8.00004925,16 C3.5817035,16 0,12.4182768 0,7.99995075 C0,3.5817823 3.5817823,0 8.00004925,0 C12.4182965,0 16,3.5817823 16,7.99995075 C16,12.4182768 12.4182965,16 8.00004925,16 Z M8.00004925,0.864852087 C4.05934014,0.864852087 0.864852087,4.05934014 0.864852087,7.99995075 C0.864852087,9.7857791 1.52541926,11.4141485 2.60966586,12.6656054 C3.30992774,11.0617029 5.09465291,9.87257556 7.26084125,9.64725147 C7.27884669,9.64510422 7.29616264,9.64071121 7.31432568,9.63872154 L7.99981285,9.59993302 L8.00026594,9.59993302 L8.00004925,9.59993302 C8.45674521,9.59993302 8.68575312,9.63872154 8.68575312,9.63872154 C8.70352217,9.64071121 8.72054263,9.64494662 8.73831167,9.64711358 C10.8995751,9.87180728 12.6805377,11.0562461 13.3843455,12.654613 C13.3850349,12.6607592 13.3824149,12.6676147 13.3828877,12.6738398 C13.509241,12.5283976 13.6282857,12.3771243 13.742701,12.2217535 C13.6304329,12.3738936 13.5140083,12.522862 13.3904129,12.6656054 C13.3887385,12.6617639 13.3860396,12.6583756 13.3843455,12.654613 C13.5068573,12.5128546 13.6314376,12.3728889 13.742701,12.2217535 C14.6139554,11.0386937 15.1351479,9.58192758 15.1351479,7.99995075 C15.1351479,4.05934014 11.9406599,0.864852087 8.00004925,0.864852087 Z M8.00004925,8.68575312 C6.61136495,8.68575312 5.48572948,7.56001916 5.48572948,6.17143336 C5.48572948,4.78284755 6.61136495,3.65719239 8.00004925,3.65719239 C9.38855625,3.65719239 10.5142705,4.78284755 10.5142705,6.17143336 C10.5142705,7.56001916 9.38863505,8.68575312 8.00004925,8.68575312 Z M8.00061285,9.59993302 L7.99981285,9.59993302 L8.00061285,9.59993302 Z M8.00037045,9.59993302 L7.99997045,9.59993302 L8.00037045,9.59993302 Z" id="Fill-1" fill="#FFFFFF" mask="url(#mask-2)"></path>
                    </g>
                </g>
            </g>
        </g>
    </g>
</svg>