<?xml version="1.0" encoding="UTF-8"?>
<svg width="16px" height="16px" viewBox="0 0 16 16" version="1.1" xmlns="http://www.w3.org/2000/svg" xmlns:xlink="http://www.w3.org/1999/xlink">
    <!-- Generator: Sketch 47.1 (45422) - http://www.bohemiancoding.com/sketch -->
    <title>callendar_hover</title>
    <desc>Created with Sketch.</desc>
    <defs></defs>
    <g id="风豹控件梳理20171218" stroke="none" stroke-width="1" fill="none" fill-rule="evenodd">
        <g id="07date" transform="translate(-480.000000, -177.000000)" fill="#50A0FC">
            <g id="Group-11" transform="translate(376.000000, 168.000000)">
                <g id="Group-10">
                    <g id="日期弹框">
                        <g id="Group-8-Copy">
                            <g id="Group-7">
                                <g id="callendar_hover" transform="translate(104.000000, 9.000000)">
                                    <g id="Group-9">
                                        <path d="M12.8,1.6 L14,1.6 C15.1045695,1.6 16,2.4954305 16,3.6 L16,14 C16,15.1045695 15.1045695,16 14,16 L2,16 C0.8954305,16 1.3527075e-16,15.1045695 0,14 L0,3.6 L0,3.6 C-1.3527075e-16,2.4954305 0.8954305,1.6 2,1.6 L2,1.6 L3.2,1.6 L3.2,2.76903226 C3.2,3.43177396 3.7372583,3.96903226 4.4,3.96903226 C5.0627417,3.96903226 5.6,3.43177396 5.6,2.76903226 L5.6,1.6 L10.4,1.6 L10.4,2.76903226 C10.4,3.43177396 10.9372583,3.96903226 11.6,3.96903226 C12.2627417,3.96903226 12.8,3.43177396 12.8,2.76903226 L12.8,1.6 Z M2.3,5.31612976 L2.3,5.31612976 C1.47157288,5.31612976 0.8,5.98770263 0.8,6.81612976 L0.8,13.7103226 C0.8,14.5387497 1.47157288,15.2103226 2.3,15.2103226 L13.7,15.2103226 C14.5284271,15.2103226 15.2,14.5387497 15.2,13.7103226 L15.2,6.81612976 C15.2,5.98770263 14.5284271,5.31612976 13.7,5.31612976 L13.7,5.31612976 L2.3,5.31612976 Z" id="Combined-Shape"></path>
                                        <rect id="Rectangle-8" x="4" y="0" width="1" height="3.2" rx="0.5"></rect>
                                        <rect id="Rectangle-8" x="11.2" y="0" width="1" height="3.2" rx="0.5"></rect>
                                    </g>
                                    <rect id="Rectangle-9" x="2.4" y="8" width="1.6" height="1.6"></rect>
                                    <rect id="Rectangle-9" x="5.6" y="8" width="1.6" height="1.6"></rect>
                                    <rect id="Rectangle-9" x="8.8" y="8" width="1.6" height="1.6"></rect>
                                    <rect id="Rectangle-9" x="12" y="8" width="1.6" height="1.6"></rect>
                                    <rect id="Rectangle-9" x="2.4" y="11.2" width="1.6" height="1.6"></rect>
                                    <rect id="Rectangle-9" x="5.6" y="11.2" width="1.6" height="1.6"></rect>
                                    <rect id="Rectangle-9" x="8.8" y="11.2" width="1.6" height="1.6"></rect>
                                    <rect id="Rectangle-9" x="12" y="11.2" width="1.6" height="1.6"></rect>
                                </g>
                            </g>
                        </g>
                    </g>
                </g>
            </g>
        </g>
    </g>
</svg>