<?xml version="1.0" encoding="UTF-8"?>
<svg width="10px" height="11px" viewBox="0 0 10 11" version="1.1" xmlns="http://www.w3.org/2000/svg" xmlns:xlink="http://www.w3.org/1999/xlink">
    <!-- Generator: Sketch 47.1 (45422) - http://www.bohemiancoding.com/sketch -->
    <title>arrow_yearleft_normal</title>
    <desc>Created with Sketch.</desc>
    <defs></defs>
    <g id="风豹控件梳理20171218" stroke="none" stroke-width="1" fill="none" fill-rule="evenodd">
        <g id="07date" transform="translate(-915.000000, -1623.000000)" fill="#6E7382">
            <g id="Group-11" transform="translate(891.000000, 1564.000000)">
                <g id="日期弹框">
                    <g id="arrow_yearleft_normal" transform="translate(24.000000, 59.000000)">
                        <path d="M0.753734625,5.24626538 L5.44590291,0.554097094 L5.44590291,0.554097094 C5.61591367,0.38408633 5.89155558,0.38408633 6.06156634,0.554097094 L6.06156634,0.554097094 L6.06156634,0.554097094 C6.23157711,0.724107858 6.23157711,0.999749768 6.06156634,1.16976053 L1.9850615,5.24626538 L6.06156634,9.32277022 L6.06156634,9.32277022 C6.23157711,9.49278098 6.23157711,9.76842289 6.06156634,9.93843366 L6.06156634,9.93843366 L6.06156634,9.93843366 C5.89155558,10.1084444 5.61591367,10.1084444 5.44590291,9.93843366 L0.753734625,5.24626538 Z" id="Back-Chevron" transform="translate(3.561566, 5.246265) scale(1, -1) translate(-3.561566, -5.246265) "></path>
                        <path d="M3.75373462,5.24626538 L8.44590291,0.554097094 L8.44590291,0.554097094 C8.61591367,0.38408633 8.89155558,0.38408633 9.06156634,0.554097094 L9.06156634,0.554097094 L9.06156634,0.554097094 C9.23157711,0.724107858 9.23157711,0.999749768 9.06156634,1.16976053 L4.9850615,5.24626538 L9.06156634,9.32277022 L9.06156634,9.32277022 C9.23157711,9.49278098 9.23157711,9.76842289 9.06156634,9.93843366 L9.06156634,9.93843366 L9.06156634,9.93843366 C8.89155558,10.1084444 8.61591367,10.1084444 8.44590291,9.93843366 L3.75373462,5.24626538 Z" id="Back-Chevron" transform="translate(6.561566, 5.246265) scale(1, -1) translate(-6.561566, -5.246265) "></path>
                    </g>
                </g>
            </g>
        </g>
    </g>
</svg>