<?xml version="1.0" encoding="UTF-8"?>
<svg width="6px" height="10px" viewBox="0 0 6 10" version="1.1" xmlns="http://www.w3.org/2000/svg" xmlns:xlink="http://www.w3.org/1999/xlink">
    <!-- Generator: Sketch 47.1 (45422) - http://www.bohemiancoding.com/sketch -->
    <title>arrow_monthleft_hover</title>
    <desc>Created with Sketch.</desc>
    <defs></defs>
    <g id="风豹控件梳理20171218" stroke="none" stroke-width="1" fill="none" fill-rule="evenodd">
        <g id="07date" transform="translate(-121.000000, -1599.000000)" fill="#51A1FD">
            <g id="Group-8" transform="translate(69.000000, 1540.000000)">
                <g id="日期弹框" transform="translate(0.000000, 36.000000)">
                    <g id="Group-2" transform="translate(15.000000, 21.000000)">
                        <g id="arrow_monthleft_hover" transform="translate(37.000000, 2.000000)">
                            <path d="M3.37507799e-14,4.81967635 L4.69216828,0.127508073 L4.69216828,0.127508073 C4.86217905,-0.0425026909 5.13782095,-0.0425026909 5.30783172,0.127508073 L5.30783172,0.127508073 L5.30783172,0.127508073 C5.47784248,0.297518837 5.47784248,0.573160747 5.30783172,0.74317151 L1.23132688,4.81967635 L5.30783172,8.8961812 L5.30783172,8.8961812 C5.47784248,9.06619196 5.47784248,9.34183387 5.30783172,9.51184464 L5.30783172,9.51184464 L5.30783172,9.51184464 C5.13782095,9.6818554 4.86217905,9.6818554 4.69216828,9.51184464 L3.37507799e-14,4.81967635 Z" id="Back-Chevron" transform="translate(2.717670, 4.819676) scale(1, -1) translate(-2.717670, -4.819676) "></path>
                        </g>
                    </g>
                </g>
            </g>
        </g>
    </g>
</svg>