<?xml version="1.0" encoding="UTF-8"?>
<svg width="6px" height="10px" viewBox="0 0 6 10" version="1.1" xmlns="http://www.w3.org/2000/svg" xmlns:xlink="http://www.w3.org/1999/xlink">
    <!-- Generator: Sketch 47.1 (45422) - http://www.bohemiancoding.com/sketch -->
    <title>arrow_monthright_normal</title>
    <desc>Created with Sketch.</desc>
    <defs></defs>
    <g id="风豹控件梳理20171218" stroke="none" stroke-width="1" fill="none" fill-rule="evenodd">
        <g id="07date" transform="translate(-1131.000000, -1624.000000)" fill="#6E7382">
            <g id="Group-11" transform="translate(891.000000, 1564.000000)">
                <g id="日期弹框">
                    <g id="arrow_monthright_normal" transform="translate(240.000000, 60.000000)">
                        <path d="M3.37507799e-14,5 L4.69216828,0.307831719 L4.69216828,0.307831719 C4.86217905,0.137820955 5.13782095,0.137820955 5.30783172,0.307831719 L5.30783172,0.307831719 L5.30783172,0.307831719 C5.47784248,0.477842483 5.47784248,0.753484393 5.30783172,0.923495156 L1.23132688,5 L5.30783172,9.07650484 L5.30783172,9.07650484 C5.47784248,9.24651561 5.47784248,9.52215752 5.30783172,9.69216828 L5.30783172,9.69216828 L5.30783172,9.69216828 C5.13782095,9.86217905 4.86217905,9.86217905 4.69216828,9.69216828 L3.37507799e-14,5 Z" id="Back-Chevron" transform="translate(2.807832, 5.000000) scale(-1, -1) translate(-2.807832, -5.000000) "></path>
                    </g>
                </g>
            </g>
        </g>
    </g>
</svg>