<svg xmlns="http://www.w3.org/2000/svg" xmlns:xlink="http://www.w3.org/1999/xlink" width="150" height="150" viewBox="0 0 150 150">
    <defs>
        <circle id="a" cx="75" cy="75" r="75"/>
        <radialGradient id="c" cy="43.732%" r="46.552%" fx="50%" fy="43.732%" gradientTransform="matrix(0 1 -1.17024 0 1.012 -.063)">
            <stop offset="0%" stop-color="#FFF"/>
            <stop offset="48.625%" stop-color="#FBFBFB"/>
            <stop offset="100%" stop-color="#EAEAEA"/>
        </radialGradient>
        <linearGradient id="d" x1="50%" x2="50%" y1="19.4%" y2="100%">
            <stop offset="0%" stop-color="#E4E1E1"/>
            <stop offset="100%" stop-color="#D4D4D4"/>
        </linearGradient>
        <path id="e" d="M.114 7.058c.109-.034 12.85-4.036 15.65-6.372.2-.165.391-.246.573-.251h.034c2.355.063 3.03 12.958-2.17 17.295-5.627 4.69-7.687 4.5-7.687 4.5L.114 7.06v-.002z"/>
        <path id="g" d="M.387 6.645C3.708 5.56 12.49 2.577 14.756.686c.206-.17.403-.251.59-.251 2.369-.001 3.06 12.947-2.154 17.295-5.626 4.69-7.687 4.5-7.687 4.5L.387 10.098V6.645z"/>
        <path id="i" d="M16.091 16.455l-5.474 9.008s-2.221-.125-7.46-6.013l-.027-.031C-1.62 14.013 1.018.676 3.503.677c.234 0 .465.117.689.369 1.71 1.92 7.843 5.281 11.9 7.385v8.024z"/>
        <path id="k" d="M84.06 25.065c.04 4.656 1.747 7.932.203 11.78-1.173 2.638-2.706 3.403-4.194 3.644-.83.051-75.273-.203-75.273-.203-.64-.058-1.854-.656-2.524-1.332C.892 37.56.802 36.498.996 34.385c0 0-.035-12.225 1.127-24.84.276-3.001.613-6.025.968-8.912h82.172c-.66 6.922-1.273 16.58-1.203 24.432z"/>
    </defs>
    <g fill="none" fill-rule="evenodd">
        <mask id="b" fill="#fff">
            <use xlink:href="#a"/>
        </mask>
        <use fill="#FFF" xlink:href="#a"/>
        <g mask="url(#b)">
            <g transform="translate(31.5 13.5)">
                <path fill="url(#c)" d="M83.421 71.56c-3.137 4.712-8.21 9.713-15.217 15.003l1.819-10.366C64.83 77.368 59.21 78 53.25 78 21.912 78 0 60.54 0 39S21.912 0 53.25 0s53.25 17.46 53.25 39c0 13.604-8.742 25.582-23.079 32.56z"/>
                <ellipse cx="52.501" cy="37.5" fill="#DEDEDE" rx="4.501" ry="4.5"/>
                <ellipse cx="67.501" cy="37.5" fill="#DEDEDE" rx="4.501" ry="4.5"/>
                <ellipse cx="37.501" cy="37.5" fill="#DEDEDE" rx="4.501" ry="4.5"/>
            </g>
        </g>
        <path fill="url(#d)" d="M30.007 137.126H118.5l-.007 17.374H30z" mask="url(#b)"/>
        <g mask="url(#b)">
            <path fill="#F29A51" d="M59.712 136.956c.073-2.51 2.206-8.605 12.245-10.455 7.92-1.46 36.874-2.867 36.46 10.576l-48.705-.121z"/>
            <g transform="translate(80.193 71.452)">
                <mask id="f" fill="#fff">
                    <use xlink:href="#e"/>
                </mask>
                <path fill="#F29A51" d="M.114 7.057s12.838-4.025 15.65-6.37C18.578-1.658 19.827 13.04 14.2 17.73c-5.626 4.69-7.687 4.5-7.687 4.5L.113 7.058z" mask="url(#f)"/>
            </g>
            <g transform="translate(81.201 71.452)">
                <mask id="h" fill="#fff">
                    <use xlink:href="#g"/>
                </mask>
                <path fill="#B26334" d="M19.323-9.44S14.145 13 3.225 18.765c-10.92 5.765 13.193 14.758 13.193 14.758l11.922-22.34L19.323-9.44z" mask="url(#h)"/>
            </g>
            <path fill="#F29A51" d="M30.454 73.716s-13.01-6.323-15.63-9.268c-2.619-2.943-6.272 12.516-1.034 18.404s7.46 6.013 7.46 6.013l9.204-15.149z"/>
            <g transform="translate(10.632 63.402)">
                <mask id="j" fill="#fff">
                    <use xlink:href="#i"/>
                </mask>
                <path fill="#B26334" d="M.94-10.465S2.894 14.26 13.59 22.133c10.696 7.871-16.36 13.628-16.36 13.628l-9.138-25.687 12.85-20.54z" mask="url(#j)"/>
            </g>
            <path fill="#F29A51" d="M21.863 72.614c-3.764-.345-7.098 2.438-7.445 6.22 0 0-2.441 13.881-3.679 27.322-1.162 12.614-1.127 24.84-1.127 24.84-.195 2.112-.226 3.06 1.157 4.452 1.09 1.101 3.217.687 4.878.839 0 0 64.642 1.29 74.65.515 0 0-2.607-.046-1.292-.257 1.488-.24 2.644-.022 3.874-3.09 1.543-3.848-.217-7.706-.258-12.362-.136-15.146 2.478-34.85 2.478-34.85.349-3.781-2.42-7.126-6.184-7.472l-67.052-6.157z"/>
            <g transform="translate(8.616 96.61)">
                <mask id="l" fill="#fff">
                    <use xlink:href="#k"/>
                </mask>
                <path fill="#F3E6CC" d="M88.037 40.26C85.737 20.222 73.734 3.926 54.3 1.305 19.801-3.347-1.457 16.813-2.72 41.428c-.068 1.3.018 2.97.061 4.246 38.195-.87 62.012-1.054 71.452-.552 13.091-.96 19.506-2.581 19.244-4.862z" mask="url(#l)"/>
            </g>
            <g>
                <path fill="#FFF" d="M68.235 98.47a6.595 6.595 0 0 0-6.653 3.955 6.592 6.592 0 0 0-5.823-5.112 6.6 6.6 0 0 0-7.172 5.97c-.334 3.63 2.334 6.843 5.96 7.175a6.597 6.597 0 0 0 6.655-3.953 6.592 6.592 0 0 0 5.822 5.112c3.626.333 6.837-2.34 7.171-5.97a6.595 6.595 0 0 0-5.96-7.177"/>
                <path fill="#58270B" d="M61.805 103.297l7.239-4.71-13.495-1.239z"/>
                <path fill="#B26435" d="M88.688 85.746c-1.64-.127-3.127 1.242-3.318 3.055-.192 1.816.984 3.389 2.625 3.515 1.641.127 3.126-1.241 3.317-3.056.192-1.814-.982-3.388-2.624-3.514M86.764 95.113c-2.086-.161-3.974 1.577-4.217 3.883-.244 2.305 1.249 4.305 3.335 4.466 2.085.16 3.974-1.578 4.217-3.883.244-2.307-1.25-4.305-3.335-4.466M89.68 107.063c-1.16-.09-2.212.878-2.348 2.162-.136 1.285.696 2.397 1.857 2.487 1.162.09 2.213-.88 2.348-2.163.136-1.284-.695-2.397-1.857-2.486M79.952 83.42c-1.161-.089-2.213.88-2.348 2.163-.136 1.284.696 2.397 1.857 2.487 1.161.09 2.213-.88 2.348-2.163.136-1.284-.696-2.397-1.857-2.486M25.138 80.546a3.293 3.293 0 0 1 2.97 3.589 3.296 3.296 0 0 1-3.576 2.987 3.293 3.293 0 0 1-2.97-3.588 3.295 3.295 0 0 1 3.576-2.988M19.652 101.308a2.33 2.33 0 0 1 2.102 2.54 2.333 2.333 0 0 1-2.53 2.113 2.331 2.331 0 0 1-2.103-2.54 2.332 2.332 0 0 1 2.53-2.113M25.29 90.087c2.296.21 3.987 2.253 3.774 4.56-.212 2.308-2.247 4.007-4.544 3.796-2.297-.21-3.987-2.253-3.775-4.56.213-2.307 2.247-4.008 4.545-3.796M35.101 79.808a2.33 2.33 0 0 1 2.102 2.538 2.333 2.333 0 0 1-2.53 2.115 2.331 2.331 0 0 1-2.102-2.54 2.332 2.332 0 0 1 2.53-2.113"/>
                <path fill="#D87942" d="M63.16 88.99l5.913 9.655-13.491-1.239z"/>
                <path fill="#B3D8EE" d="M74.404 95.601s5.8.282 5.964 6.247c.163 5.964.443 9.88 2.059 12.4 1.616 2.521 5.515 3.707 6.054 8.65.842 7.737-2.363 14.418-2.26 14.203l-10.144-.017c.045-.214 2.416-6.471.852-12.126-1.563-5.654-9.074-8.418-6.509-14.147 2.954-6.596 1.151-10.701-.158-12.869l3.695-1.807M48.967 92.507s-10.134 2.608-10.332 9.786c-.154 5.622.661 6.639-1.291 9.014-1.953 2.375-7.257 4.847-6.975 9.529.284 4.681 3.1 10.044 3.1 10.044l11.607.642s-3.68-3.555-1.792-8.884c1.89-5.328 8.997-9.562 7.492-15.452-1.506-5.889 1.518-9.803 3.099-11.846l-2.325-3.09"/>
                <path fill="#F29A51" d="M2.347 143.64s-.753-16.779 9.286-18.627c7.92-1.46 44.634.595 46.23 9.785 1.598 9.19-3.039 12.503-12.684 11.584-6.37-.606-20.647-1.52-42.832-2.742z"/>
                <path fill="#58270B" d="M51.809 89.674c2.14 0 3.874 1.73 3.874 3.864a3.868 3.868 0 0 1-3.874 3.862 3.868 3.868 0 0 1-3.874-3.862 3.869 3.869 0 0 1 3.874-3.864M73.243 92.326c-1.955-.413-3.883.774-4.309 2.651-.424 1.877.816 3.734 2.77 4.146 1.954.413 3.884-.775 4.308-2.651.426-1.878-.814-3.734-2.77-4.146"/>
                <path fill="#58270B" d="M59.196 88.32a.755.755 0 1 1 1.396.58l-1.397-.579.001-.002zm.023-.051l1.341.698c-.2.384-1.432 2.337-5.683 2.252-5.576-.11-8.955-.624-9.008-.632a.755.755 0 1 1 .229-1.492c.033.005 3.374.508 8.81.616 3.48.068 4.279-1.38 4.311-1.442zm1.341.698l-.742-.386.773.32-.03.066zm-.742-.386l-.623-.26s.006-.019.024-.052l.6.312zM67.606 89.318a.755.755 0 0 1 1.51.096c0 .003-.108 1.645 3.036 2.21 3.45.621 4.457.997 5.4 1.35.273.102.542.203.862.305a.755.755 0 1 1-.466 1.437 21.303 21.303 0 0 1-.926-.329c-.896-.335-1.822-.68-5.138-1.278-4.42-.794-4.286-3.668-4.278-3.79v-.001"/>
                <path fill="#FFF" d="M76.666 96.114c1.283.054 2.296.731 2.263 1.513-.034.781-1.1 1.37-2.383 1.318-1.283-.055-2.295-.733-2.263-1.514.034-.782 1.1-1.372 2.383-1.317M47.798 92.77c1.421.121 2.52.852 2.452 1.632-.068.779-1.275 1.312-2.696 1.19-1.42-.121-2.518-.852-2.452-1.632.068-.779 1.274-1.312 2.696-1.19"/>
            </g>
            <g>
                <path fill="#93000B" d="M63.444 74.273s12.059 1.915 13.227 4.03c1.167 2.115.187 6.065-4.558 5.675-4.699-.386-4.34-1.948-8.434-2.284-3.629-.298-3.426.656-8.01.561-4.582-.094-6.43-3.098-4.857-6.086 1.572-2.99 12.632-1.896 12.632-1.896"/>
                <path fill="#C31B1F" d="M51.078 75.91c.132-1.15.855-5.68 4.196-8.572 2.256-1.952 5.257-2.79 8.92-2.488l.527.048C76.33 66.118 76.594 75.48 76.45 78.005c-1.314-.302-7.051-1.587-11.68-2.073a44.385 44.385 0 0 0-.985-.092c-4.61-.377-11.263-.015-12.707.07"/>
                <path fill="#C31B1F" d="M64.745 64.659a22.147 22.147 0 0 0-.53-.05C51.592 63.575 50.81 76.168 50.81 76.168s7.742-.516 12.954-.088c.32.026.646.056.978.091 5.282.555 11.927 2.133 11.927 2.133.206-2.513.171-12.374-11.925-13.645m-.05.478c10.881 1.144 11.665 9.3 11.53 12.571-1.713-.388-7.062-1.556-11.432-2.015a44.777 44.777 0 0 0-.99-.093c-4.365-.357-10.553-.053-12.45.054.204-1.455 1.03-5.5 4.081-8.137 2.206-1.906 5.147-2.724 8.74-2.429.176.014.35.031.521.05"/>
                <path fill="#C31B1F" d="M59.237 73.636l12.855 1.352.671-6.39-12.855-1.35z"/>
                <path fill="#FFF" d="M63.685 68.941l-.026.248-1.987-.209-.157 1.497 2.015.212-.026.246-2.015-.212-.167 1.587 2.015.212-.026.247-2.656-.279.402-3.825zM64.523 71.042l-.192 1.835-.643-.068.402-3.825.643.068-.184 1.742 1.922.202.183-1.742.643.067-.402 3.825-.643-.067.193-1.835zM67.973 72.976l.681.072c.215.022.422.008.62-.044a1.404 1.404 0 0 0 .922-.748c.103-.197.168-.43.196-.7.025-.234.01-.453-.046-.659a1.473 1.473 0 0 0-.73-.925 1.61 1.61 0 0 0-.615-.186l-.686-.072-.342 3.262zm-.271-3.612l1.272.134c.394.041.728.112 1.004.215.274.104.498.245.669.427.197.206.336.433.422.684.083.25.11.517.08.8-.028.27-.104.517-.227.743a1.79 1.79 0 0 1-.493.575 2.04 2.04 0 0 1-.738.344 2.738 2.738 0 0 1-.963.053l-1.428-.15.402-3.825z"/>
            </g>
        </g>
    </g>
</svg>
